<?xml version="1.0" encoding="utf-8"?>
<!-- Generator: Adobe Illustrator 19.2.1, SVG Export Plug-In . SVG Version: 6.00 Build 0)  -->
<svg version="1.1" id="Réteg_1" xmlns="http://www.w3.org/2000/svg" xmlns:xlink="http://www.w3.org/1999/xlink" x="0px" y="0px"
	 viewBox="0 0 2500 2445" style="enable-background:new 0 0 2500 2445;" xml:space="preserve">
<style type="text/css">
	.st0{fill:#388e3c;}
	.st1{fill:#FFFFFF;}
</style>
<title>ti-star-booking-f</title>
<path class="st0" d="M2500,469.5C2500,210.4,2289.6,0,2030.5,0h-1561C210.4,0,0,210.4,0,469.5v1506.1c0,2.8,0,5.7,0.1,8.5V2445
	h2030.4c259.1,0,469.5-210.4,469.5-469.4V469.5z"/>
<path class="st1" d="M1328.4,510.8l177.9,360.5c12.7,25.8,37.4,43.7,65.9,47.9l397.9,57.8c71.8,10.4,100.4,98.6,48.5,149.2
	l-287.9,280.6c-20.6,20.1-30,49-25.2,77.4l68,396.3c12.3,71.5-62.7,126-126.9,92.2l-355.9-187.1c-25.5-13.4-55.9-13.4-81.4,0
	l-355.9,187.1c-64.2,33.7-139.2-20.8-126.9-92.2l68-396.3c4.8-28.4-4.6-57.3-25.2-77.4l-287.9-280.7
	c-51.9-50.6-23.3-138.8,48.5-149.2l397.9-57.8c28.5-4.1,53.1-22,65.9-47.9l177.9-360.5C1203.6,445.8,1296.4,445.8,1328.4,510.8z"/>
</svg>
