<?xml version="1.0" encoding="UTF-8" standalone="no"?><!DOCTYPE svg PUBLIC "-//W3C//DTD SVG 1.1//EN" "http://www.w3.org/Graphics/SVG/1.1/DTD/svg11.dtd"><svg width="100%" height="100%" viewBox="0 0 119 119" version="1.1" xmlns="http://www.w3.org/2000/svg" xmlns:xlink="http://www.w3.org/1999/xlink" xml:space="preserve" xmlns:serif="http://www.serif.com/" style="fill-rule:evenodd;clip-rule:evenodd;stroke-linejoin:round;stroke-miterlimit:2;"><g><path d="M59.366,-0l-0,118.124l-46.866,-0c-6.899,-0 -12.5,-5.601 -12.5,-12.5l-0,-93.124c-0,-6.899 5.601,-12.5 12.5,-12.5l46.866,-0Z" style="fill:#ea7238;"/><path d="M59.366,-0l46.258,-0c6.899,-0 12.5,5.601 12.5,12.5l-0,93.124c-0,6.899 -5.601,12.5 -12.5,12.5l-46.258,-0l-0,-118.124Z" style="fill:#ccc;"/><g><path d="M55.215,19.338c0.585,-1.804 2.268,-3.024 4.162,-3.024c1.894,-0 3.57,1.22 4.155,3.024l7.337,22.606c0.217,0.662 0.64,1.242 1.203,1.654c0.568,0.412 1.253,0.635 1.949,0.635l23.77,-0.011c1.894,-0 3.57,1.22 4.155,3.025c0.585,1.799 -0.055,3.771 -1.587,4.885l-19.23,13.965c-0.568,0.412 -0.991,0.992 -1.208,1.655c-0.218,0.668 -0.212,1.387 -0,2.05l7.353,22.599c0.585,1.805 -0.056,3.777 -1.588,4.891c-1.532,1.114 -3.61,1.114 -5.142,-0l-19.218,-13.976c-0.568,-0.413 -1.247,-0.636 -1.949,-0.636c-0.702,0 -1.382,0.223 -1.95,0.636l-19.224,13.976c-1.532,1.114 -3.604,1.114 -5.136,-0c-1.537,-1.114 -2.178,-3.086 -1.587,-4.891l7.347,-22.599c0.217,-0.663 0.217,-1.382 0,-2.05c-0.212,-0.663 -0.635,-1.243 -1.203,-1.655l-19.229,-13.965c-1.532,-1.114 -2.178,-3.086 -1.594,-4.885c0.591,-1.805 2.268,-3.025 4.162,-3.025l23.763,0.011c0.702,-0 1.387,-0.223 1.95,-0.635c0.568,-0.412 0.991,-0.992 1.203,-1.654l7.336,-22.606Z" style="fill:#fff;"/></g></g></svg>