<?xml version="1.0" encoding="utf-8"?>
<!-- Generator: Adobe Illustrator 24.1.3, SVG Export Plug-In . SVG Version: 6.00 Build 0)  -->
<svg version="1.1" id="Réteg_1" xmlns="http://www.w3.org/2000/svg" xmlns:xlink="http://www.w3.org/1999/xlink" x="0px" y="0px"
	 viewBox="0 0 50 50" style="enable-background:new 0 0 50 50;" xml:space="preserve">
<style type="text/css">
	.st0{fill:none;}
	.st1{fill-rule:evenodd;clip-rule:evenodd;fill:#2AA8D7;}
	.st2{fill-rule:evenodd;clip-rule:evenodd;fill:#FFFFFF;}
</style>
<g>
	<rect id="canvas_background" x="-1" y="-1" class="st0" width="52" height="52"/>
</g>
<g transform="matrix(0.591272,0,0,0.21496,-126.416,66.9821)">
	<g transform="matrix(-1.68585,-8.1708e-16,1.50946e-16,-1.68585,675.316,-776.864)">
		<path class="st1" d="M273.8-358.7c0-30.4-9-55.1-20-55.1h-10.1c-11.1,0-20,24.7-20,55.1v27.6c0,30.4,9,55.1,20,55.1h10.1
			c11.1,0,20-24.7,20-55.1V-358.7z"/>
	</g>
	<g transform="matrix(1.72508,0,0,1.72703,-812.125,-4808.11)">
		<path class="st2" d="M618.1,2669.8l9.9-27.2c0.7-2,1.9-2,2.7,0l2.7,7.3c0.7,2,0.7,5.3,0,7.3l-13.2,36.2c0,0.1-0.1,0.3-0.1,0.4
			l-2.7,7.3c-0.4,1-0.9,1.5-1.3,1.5c-0.5,0-1-0.5-1.3-1.5l-2.7-7.3c0-0.1-0.1-0.2-0.1-0.4l-6.9-19c-0.7-2-0.7-5.3,0-7.3l2.7-7.3
			c0.7-2,1.9-2,2.7,0l5.2,14.3h0l0,0l0.5,1.3l0,0l5.3,14.5L618.1,2669.8z"/>
	</g>
</g>
</svg>
