<?xml version="1.0" encoding="utf-8"?>
<!-- Generator: Adobe Illustrator 19.2.1, SVG Export Plug-In . SVG Version: 6.00 Build 0)  -->
<svg version="1.1" id="Réteg_1" xmlns="http://www.w3.org/2000/svg" xmlns:xlink="http://www.w3.org/1999/xlink" x="0px" y="0px"
	 viewBox="0 0 60.7 60" style="enable-background:new 0 0 60.7 60;" xml:space="preserve">
<style type="text/css">
	.st0{fill:none;}
	.st1{fill:#C7C8CA;}
	.st2{fill:#FFFFFF;}
	.st3{fill:#F37021;}
	.st4{fill:#1A5C87;}
</style>
<rect id="backgroundrect" y="0" class="st0" width="60.7" height="60"/>
<g>
	<title>Layer 1</title>
	<path id="svg_1" class="st1" d="M23.4,22.8l1.5-1.7C24,16.8,21.5,12.5,18,8.3C15.3,5.2,12,3,7.7,1.4l-0.9,1C6.5,2.7,6.3,3,5.9,3.6
		c3.7,1.1,7.1,3.3,9.9,6.6c1.8,2.1,3.3,4.4,4.4,7c1.1,2.4,1.6,4.7,1.7,7C22.4,23.9,22.8,23.4,23.4,22.8z"/>
	<path id="svg_2" class="st2" d="M22.6,23.7c0.7-0.9,1.5-1.5,1.9-2.2c-1-4.6-3.4-8.8-6.8-12.9C15,5.5,11.6,3.4,7.8,1.9
		C7.3,2.2,6.7,2.7,6.4,3.3c3.6,1,6.9,3.2,9.9,6.6c1.8,2.1,3.4,4.5,4.5,6.9C21.7,19.1,22.3,21.5,22.6,23.7z"/>
	<path id="svg_3" class="st3" d="M50.7,51.4c1.2-0.4,2.1-1.3,2.8-2.4l6.7-13.8c1-1.9,0.5-4.2-1.2-5.7c-0.3-0.2-0.7-0.6-1-0.7
		L32.7,16.5L23,18.7L17.5,30l4.3,9.1L47,51.3C48.2,51.8,49.4,51.9,50.7,51.4z"/>
	<path id="svg_4" class="st2" d="M25,19l-8.7,9.4l1.5,10.1l20.8,19c2,1.9,5.3,1.8,7.3-0.3L56.2,46c1.9-2,1.8-5.3-0.3-7.3l-20.8-19
		C35.1,19.6,25,19,25,19z"/>
	<path id="svg_5" class="st1" d="M38.6,58L38.6,58l-21-19.2l-1.6-10.4l8.9-9.7l10.6,0.7l20.9,19.1c2.2,2.1,2.3,5.5,0.3,7.7
		L46.3,57.5c-0.9,1-2.3,1.7-3.7,1.8C41,59.4,39.7,58.9,38.6,58z M18.4,38.4l20.7,19l0.1,0.1c2,1.7,4.8,1.5,6.7-0.4l10.3-11.3
		c1.8-1.9,1.6-4.9-0.3-6.8L35.2,20l-9.9-0.6l-8.5,9.1C16.8,28.5,18.4,38.4,18.4,38.4z"/>
	<path id="svg_6" class="st4" d="M7.9,29.7L21,54.5c0.2,0.5,0.6,1,1.1,1.4c1.5,1.3,3.7,1.5,5.3,0.6L41,49.4c1.1-0.5,1.9-1.7,2.3-2.8
		c0.4-1.2,0.2-2.5-0.3-3.6L29.8,18.1l-9.1-3.9L9.7,20C9.7,20,7.9,29.7,7.9,29.7z"/>
	<path id="svg_9" class="st4" d="M7.9,29.7L21,54.5c0.2,0.5,0.6,1,1.1,1.4c1.5,1.3,3.7,1.5,5.3,0.6L41,49.4c1.1-0.5,1.9-1.7,2.3-2.8
		c0.4-1.2,0.2-2.5-0.3-3.6L29.8,18.1l-9.1-3.9L9.7,20C9.7,20,7.9,29.7,7.9,29.7z"/>
	<path id="svg_7" class="st1" d="M17.1,25.8c1.4,0.5,2.4,0.5,2.8,0.3c0.6-0.3,0.8-0.8,0.9-1.4c0-0.6-0.6-1.2-1.6-1.4
		c-4.2-1.3-7.5-3.3-10.1-6.4c-1.4-1.7-2.9-4-4.2-6.8C3.7,7.3,3.4,6.2,3.5,5.3c1.4-1.8,2.2-1.6,2.5-1.7c1,0.3,2-0.6,1.7-2.2
		C5.8,1,3.2,1,1.9,1.9C0.8,2.8,0.1,4.4,0.4,5.8C3.2,19.7,12.9,24.7,17.1,25.8z"/>
	<path id="svg_8" class="st2" d="M17,25.4c1.1,0.3,2.4,0.7,2.8,0.3c0.2-0.2,0.6-0.8,0.2-1.2c-0.2-0.2-0.9-0.5-1.3-0.6
		c-3.7-1.1-7.1-3.2-10.1-6.6C6.2,14.4,2.8,8.4,2.8,5.5c0-1,2.2-2.3,3.6-2.2c1.1,0.4,3.2,1,1.4-1.4C5.7,1.4,2.2,1.5,1.2,3.5
		C1,3.9,0.6,4.8,0.7,5.7C1.3,10.4,4.5,16,7.9,19.6C11,22.8,14.9,24.7,17,25.4z"/>
</g>
</svg>
